<?xml version="1.0" encoding="UTF-8" standalone="no"?>
<!-- Created with Inkscape (http://www.inkscape.org/) -->
<svg
   xmlns:svg="http://www.w3.org/2000/svg"
   xmlns="http://www.w3.org/2000/svg"
   version="1.0"
   width="1100"
   height="400"
   id="svg2"
   xml:space="preserve"><defs
     id="defs5"><clipPath
       id="clipPath17"><path
         d="M 0,378.264 L 1738.975,378.264 L 1738.975,0 L 0,0 L 0,378.264 z"
         id="path19" /></clipPath></defs><g
     transform="matrix(1.25,0,0,-1.25,0,472.83)"
     id="g11"><g
       clip-path="url(#clipPath17)"
       id="g15"><g
         transform="matrix(1.2451142,0,0,1.2451142,-76.993703,-17.227188)"
         id="g2555"><g
           transform="translate(182.8994,126.4438)"
           id="g21"><path
             d="M 0,0 C -37.877,0 -56.811,20.786 -56.811,62.36 C -56.811,83.039 -51.662,98.838 -41.357,109.758 C -31.055,120.677 -16.289,126.138 2.938,126.138 C 17.012,126.138 29.637,123.379 40.811,117.866 L 31.017,92.181 C 25.791,94.285 20.931,96.007 16.432,97.351 C 11.932,98.693 7.433,99.364 2.938,99.364 C -14.331,99.364 -22.964,87.102 -22.964,62.579 C -22.964,38.781 -14.331,26.881 2.938,26.881 C 9.321,26.881 15.235,27.733 20.677,29.438 C 26.118,31.144 31.559,33.809 37,37.438 L 37,9.033 C 31.632,5.622 26.208,3.265 20.732,1.959 C 15.253,0.654 8.341,0 0,0"
             id="path23"
             style="fill:#d91d27;fill-opacity:1;fill-rule:nonzero;stroke:none" /></g><g
           transform="translate(332.7612,128.6203)"
           id="g25"><path
             d="M 0,0 L -96.1,0 L -96.1,19.59 L -39.726,96.317 L -92.727,96.317 L -92.727,121.675 L -1.961,121.675 L -1.961,100.126 L -56.811,25.358 L 0,25.358 L 0,0 z"
             id="path27"
             style="fill:#d91d27;fill-opacity:1;fill-rule:nonzero;stroke:none" /></g><g
           transform="translate(399.5836,126.4438)"
           id="g29"><path
             d="M 0,0 C -37.877,0 -56.811,20.786 -56.811,62.36 C -56.811,83.039 -51.662,98.838 -41.357,109.758 C -31.055,120.677 -16.289,126.138 2.938,126.138 C 17.012,126.138 29.637,123.379 40.811,117.866 L 31.017,92.181 C 25.791,94.285 20.931,96.007 16.431,97.351 C 11.932,98.693 7.433,99.364 2.938,99.364 C -14.332,99.364 -22.964,87.102 -22.964,62.579 C -22.964,38.781 -14.332,26.881 2.938,26.881 C 9.321,26.881 15.235,27.733 20.677,29.438 C 26.118,31.144 31.559,33.809 37,37.438 L 37,9.033 C 31.632,5.622 26.208,3.265 20.732,1.959 C 15.253,0.654 8.341,0 0,0"
             id="path31"
             style="fill:#d91d27;fill-opacity:1;fill-rule:nonzero;stroke:none" /></g><g
           transform="translate(453.0198,144.1826)"
           id="g33"><path
             d="M 0,0 C 0,6.095 1.634,10.702 4.899,13.822 C 8.164,16.941 12.916,18.502 19.157,18.502 C 25.176,18.502 29.838,16.906 33.141,13.714 C 36.441,10.521 38.092,5.949 38.092,0 C 38.092,-5.732 36.423,-10.248 33.086,-13.549 C 29.748,-16.849 25.103,-18.5 19.157,-18.5 C 13.062,-18.5 8.344,-16.885 5.007,-13.657 C 1.669,-10.43 0,-5.876 0,0"
             id="path35"
             style="fill:#d91d27;fill-opacity:1;fill-rule:nonzero;stroke:none" /></g><g
           transform="translate(554.4821,126.4438)"
           id="g37"><path
             d="M 0,0 C -37.877,0 -56.811,20.786 -56.811,62.36 C -56.811,83.039 -51.662,98.838 -41.357,109.758 C -31.055,120.677 -16.289,126.138 2.938,126.138 C 17.012,126.138 29.636,123.379 40.811,117.866 L 31.017,92.181 C 25.791,94.285 20.931,96.007 16.432,97.351 C 11.932,98.693 7.433,99.364 2.938,99.364 C -14.331,99.364 -22.964,87.102 -22.964,62.579 C -22.964,38.781 -14.331,26.881 2.938,26.881 C 9.321,26.881 15.235,27.733 20.677,29.438 C 26.118,31.144 31.559,33.809 37,37.438 L 37,9.033 C 31.632,5.622 26.208,3.265 20.732,1.959 C 15.253,0.654 8.341,0 0,0"
             id="path39"
             style="fill:#2e5e8e;fill-opacity:1;fill-rule:nonzero;stroke:none" /></g><g
           transform="translate(704.3474,128.6203)"
           id="g41"><path
             d="M 0,0 L -96.1,0 L -96.1,19.59 L -39.726,96.317 L -92.727,96.317 L -92.727,121.675 L -1.961,121.675 L -1.961,100.126 L -56.811,25.358 L 0,25.358 L 0,0 z"
             id="path43"
             style="fill:#2e5e8e;fill-opacity:1;fill-rule:nonzero;stroke:none" /></g></g></g></g></svg>